<svg class="svg-icon" style="width: 1em; height: 1em;vertical-align: middle;fill: currentColor;overflow: hidden;" viewBox="0 0 1024 1024" version="1.1" xmlns="http://www.w3.org/2000/svg"><path d="M788.48 198.656c20.2752 0 36.864 16.5888 36.864 36.864v552.96c0 20.2752-16.5888 36.864-36.864 36.864H235.52c-20.2752 0-36.864-16.5888-36.864-36.864V235.52c0-20.2752 16.5888-36.864 36.864-36.864h552.96m0-45.056H235.52c-45.2608 0-81.92 36.6592-81.92 81.92v552.96c0 45.2608 36.6592 81.92 81.92 81.92h552.96c45.2608 0 81.92-36.6592 81.92-81.92V235.52c0-45.2608-36.6592-81.92-81.92-81.92z" fill="#260A50" /><path d="M370.688 153.6h45.056v716.8h-45.056z" fill="#260A50" /><path d="M512 344.064c0-12.4928 10.0352-22.528 22.528-22.528h143.36c12.4928 0 22.528 10.0352 22.528 22.528s-10.0352 22.528-22.528 22.528h-143.36c-12.4928 0-22.528-10.0352-22.528-22.528z" fill="#F04FC0" /></svg>